<svg xmlns="http://www.w3.org/2000/svg" viewBox="0 0 32 32" fill="none">
  <rect width="32" height="32" rx="8" fill="#5B8471"/>
  <path d="M16 8.4c-1.7 0-2.6.85-3.5.85-1.13 0-2.05-.8-3.15-.8-1.7 0-3.05 1.5-3.05 3.95 0 4.1 2.35 9.5 4.15 9.5 1.15 0 1.35-1.7 2.05-3.95.35-1.05.7-2.05 1.5-2.05s1.15 1 1.5 2.05c.7 2.25.9 3.95 2.05 3.95 1.8 0 4.15-5.4 4.15-9.5 0-2.45-1.35-3.95-3.05-3.95-1.1 0-2.02.8-2.65.8" stroke="white" stroke-width="1.3" stroke-linejoin="round" fill="white" fill-opacity="0.95"/>
</svg>
